<!DOCTYPE svg PUBLIC "-//W3C//DTD SVG 1.1//EN" "http://www.w3.org/Graphics/SVG/1.1/DTD/svg11.dtd">
<!-- Uploaded to: SVG Repo, www.svgrepo.com, Transformed by: SVG Repo Mixer Tools -->
<svg fill="#2a2e92" version="1.1" id="Capa_1" xmlns="http://www.w3.org/2000/svg" xmlns:xlink="http://www.w3.org/1999/xlink" width="800px" height="800px" viewBox="0 0 79.936 79.936" xml:space="preserve" stroke="#2a2e92">
<g id="SVGRepo_bgCarrier" stroke-width="0"/>
<g id="SVGRepo_tracerCarrier" stroke-linecap="round" stroke-linejoin="round"/>
<g id="SVGRepo_iconCarrier"> <g> <g> <path d="M68.127,3.677H56.699c-5.271-2.436-10.896-3.676-16.73-3.676s-11.463,1.24-16.734,3.676H11.809c-0.553,0-1,0.448-1,1 v7.985C3.839,20.099,0,29.777,0,39.968c0,10.191,3.839,19.869,10.809,27.307v7.984c0,0.552,0.447,1,1,1h11.426 c5.271,2.436,10.9,3.676,16.734,3.676s11.462-1.24,16.732-3.676h11.428c0.552,0,1-0.448,1-1v-7.984 c6.968-7.438,10.807-17.115,10.807-27.307c0-10.192-3.839-19.869-10.809-27.306V4.677C69.127,4.124,68.68,3.677,68.127,3.677z M51.152,3.677h-22.37C35.989,1.449,43.947,1.449,51.152,3.677z M12.809,5.677h10.634h33.051H67.13v7.372v16.557H12.81V13.049 L12.809,5.677L12.809,5.677z M1.999,39.968c0-8.948,3.11-17.482,8.809-24.302V64.27C5.111,57.45,1.999,48.915,1.999,39.968z M28.783,76.26h22.37C43.947,78.487,35.989,78.487,28.783,76.26z M67.127,74.26H56.492h-33.05H12.809v-7.372V31.606h54.318v35.282 V74.26z M77.936,39.968c0,8.947-3.107,17.482-8.809,24.302V15.666C74.824,22.486,77.936,31.02,77.936,39.968z"/> <path d="M25.888,26.998c4.821,0,8.744-3.923,8.744-8.745c0-4.822-3.923-8.744-8.744-8.744c-4.822,0-8.744,3.922-8.744,8.744 C17.144,23.075,21.066,26.998,25.888,26.998z M25.888,11.51c3.719,0,6.744,3.025,6.744,6.744c0,3.719-3.024,6.745-6.744,6.745 c-3.72,0-6.744-3.025-6.744-6.745C19.144,14.535,22.168,11.51,25.888,11.51z"/> <path d="M23.906,21.804c0.195,0.195,0.451,0.293,0.707,0.293s0.512-0.098,0.707-0.293l4.755-4.755 c0.391-0.391,0.391-1.023,0-1.414s-1.022-0.391-1.414,0l-4.048,4.048l-1.744-1.744c-0.391-0.391-1.022-0.391-1.414,0 c-0.391,0.39-0.391,1.023,0,1.414L23.906,21.804z"/> <path d="M36.671,17.342h25.487c0.553,0,1-0.448,1-1s-0.447-1-1-1H36.671c-0.552,0-1,0.448-1,1S36.119,17.342,36.671,17.342z"/> <path d="M36.671,21.607h25.487c0.553,0,1-0.448,1-1c0-0.552-0.447-1-1-1H36.671c-0.552,0-1,0.448-1,1 C35.671,21.159,36.119,21.607,36.671,21.607z"/> <path d="M62.158,35.39H18.144c-0.553,0-1,0.448-1,1c0,0.552,0.447,1,1,1h44.019c0.551,0,1-0.448,1-1 C63.158,35.838,62.711,35.39,62.158,35.39z"/> <path d="M62.158,38.331H18.144c-0.553,0-1,0.447-1,1c0,0.552,0.447,1,1,1h44.019c0.551,0,1-0.448,1-1 C63.158,38.779,62.711,38.331,62.158,38.331z"/> <path d="M62.158,41.272H18.144c-0.553,0-1,0.447-1,1c0,0.551,0.447,1,1,1h44.019c0.551,0,1-0.449,1-1 C63.16,41.72,62.711,41.272,62.158,41.272z"/> <path d="M62.158,44.213H18.144c-0.553,0-1,0.448-1,1s0.447,1,1,1h44.019c0.551,0,1-0.448,1-1S62.711,44.213,62.158,44.213z"/> <path d="M62.158,47.153H18.144c-0.553,0-1,0.448-1,1c0,0.555,0.447,1,1,1h44.019c0.551,0,1-0.445,1-1 C63.158,47.602,62.711,47.153,62.158,47.153z"/> <path d="M62.158,49.507H18.144c-0.553,0-1,0.447-1,1c0,0.552,0.447,1,1,1h44.019c0.551,0,1-0.448,1-1 C63.158,49.954,62.711,49.507,62.158,49.507z"/> <path d="M33.632,53.231H18.535c-0.552,0-1,0.448-1,1v15.098c0,0.554,0.448,1,1,1h15.097c0.553,0,1-0.446,1-1V54.231 C34.632,53.679,34.185,53.231,33.632,53.231z M32.632,68.329H19.535V55.231h13.097V68.329z"/> <path d="M62.158,53.231H36.671c-0.552,0-1,0.448-1,1c0,0.553,0.448,1,1,1h25.487c0.553,0,1-0.447,1-1 C63.158,53.68,62.711,53.231,62.158,53.231z"/> <path d="M62.158,56.173H36.671c-0.552,0-1,0.447-1,1c0,0.552,0.448,1,1,1h25.487c0.553,0,1-0.448,1-1 C63.158,56.62,62.711,56.173,62.158,56.173z"/> <path d="M62.158,58.526H36.671c-0.552,0-1,0.447-1,1c0,0.551,0.448,1,1,1h25.487c0.553,0,1-0.449,1-1 C63.158,58.974,62.711,58.526,62.158,58.526z"/> </g> </g> </g>
</svg>